<mxfile host="65bd71144e">
    <diagram id="DWIeii7lt4jKxfXMWERC" name="HIghLevel">
        <mxGraphModel dx="897" dy="533" grid="1" gridSize="10" guides="1" tooltips="1" connect="1" arrows="1" fold="1" page="1" pageScale="1" pageWidth="827" pageHeight="1169" math="0" shadow="0">
            <root>
                <mxCell id="0"/>
                <mxCell id="1" parent="0"/>
                <mxCell id="5" style="edgeStyle=orthogonalEdgeStyle;rounded=0;orthogonalLoop=1;jettySize=auto;html=1;exitX=0;exitY=0.5;exitDx=0;exitDy=0;entryX=1;entryY=0.5;entryDx=0;entryDy=0;" parent="1" source="6" target="20" edge="1">
                    <mxGeometry relative="1" as="geometry"/>
                </mxCell>
                <mxCell id="7" style="edgeStyle=orthogonalEdgeStyle;rounded=0;orthogonalLoop=1;jettySize=auto;html=1;entryX=0.5;entryY=0;entryDx=0;entryDy=0;" parent="1" source="2" target="6" edge="1">
                    <mxGeometry relative="1" as="geometry"/>
                </mxCell>
                <mxCell id="2" value="GO_node&lt;br&gt;App" style="rounded=1;whiteSpace=wrap;html=1;fillColor=#d80073;strokeColor=#A50040;fontColor=#ffffff;" parent="1" vertex="1">
                    <mxGeometry x="354" y="170" width="120" height="60" as="geometry"/>
                </mxCell>
                <mxCell id="3" value="&lt;h1&gt;MyFirstGOApp&lt;/h1&gt;&lt;p&gt;The main mission of this mini-project is to summarize everything I've learned about GO into one app&lt;/p&gt;&lt;p&gt;&lt;br&gt;&lt;/p&gt;&lt;p&gt;I'll use this project-layout:&lt;br&gt;&lt;br&gt;https://github.com/golang-standards/project-layout&lt;br&gt;&lt;/p&gt;" style="text;html=1;strokeColor=none;fillColor=none;spacing=5;spacingTop=-20;whiteSpace=wrap;overflow=hidden;rounded=0;" parent="1" vertex="1">
                    <mxGeometry x="10" y="10" width="340" height="160" as="geometry"/>
                </mxCell>
                <mxCell id="21" style="edgeStyle=orthogonalEdgeStyle;rounded=0;orthogonalLoop=1;jettySize=auto;html=1;exitX=1;exitY=0.5;exitDx=0;exitDy=0;endArrow=block;endFill=1;" parent="1" source="4" target="20" edge="1">
                    <mxGeometry relative="1" as="geometry"/>
                </mxCell>
                <mxCell id="4" value="Clients manager" style="rounded=1;whiteSpace=wrap;html=1;" parent="1" vertex="1">
                    <mxGeometry x="20" y="360" width="120" height="60" as="geometry"/>
                </mxCell>
                <mxCell id="9" value="" style="edgeStyle=orthogonalEdgeStyle;rounded=0;orthogonalLoop=1;jettySize=auto;html=1;entryX=0;entryY=0.5;entryDx=0;entryDy=0;" parent="1" source="6" target="18" edge="1">
                    <mxGeometry relative="1" as="geometry"/>
                </mxCell>
                <mxCell id="6" value="web.Server" style="rounded=1;whiteSpace=wrap;html=1;fillColor=#a20025;strokeColor=#6F0000;fontColor=#ffffff;" parent="1" vertex="1">
                    <mxGeometry x="354" y="360" width="120" height="60" as="geometry"/>
                </mxCell>
                <mxCell id="19" style="edgeStyle=orthogonalEdgeStyle;rounded=0;orthogonalLoop=1;jettySize=auto;html=1;exitX=0;exitY=0.5;exitDx=0;exitDy=0;endArrow=block;endFill=1;" parent="1" source="8" target="18" edge="1">
                    <mxGeometry relative="1" as="geometry"/>
                </mxCell>
                <mxCell id="8" value="DataBaseManager" style="whiteSpace=wrap;html=1;rounded=1;" parent="1" vertex="1">
                    <mxGeometry x="645" y="360" width="120" height="60" as="geometry"/>
                </mxCell>
                <mxCell id="11" style="edgeStyle=orthogonalEdgeStyle;rounded=0;orthogonalLoop=1;jettySize=auto;html=1;exitX=0.5;exitY=0;exitDx=0;exitDy=0;entryX=0.5;entryY=1;entryDx=0;entryDy=0;dashed=1;startArrow=classic;startFill=1;" parent="1" source="10" target="4" edge="1">
                    <mxGeometry relative="1" as="geometry"/>
                </mxCell>
                <mxCell id="10" value="GO_node&lt;br&gt;Client" style="rounded=1;whiteSpace=wrap;html=1;fillColor=#60a917;strokeColor=#2D7600;fontColor=#ffffff;" parent="1" vertex="1">
                    <mxGeometry x="20" y="600" width="120" height="60" as="geometry"/>
                </mxCell>
                <mxCell id="12" value="gRPC communication" style="text;html=1;align=center;verticalAlign=middle;resizable=0;points=[];autosize=1;strokeColor=none;" parent="1" vertex="1">
                    <mxGeometry x="20" y="500" width="130" height="20" as="geometry"/>
                </mxCell>
                <mxCell id="14" value="GO_node StatisticsManager" style="whiteSpace=wrap;html=1;rounded=1;fillColor=#1ba1e2;strokeColor=#006EAF;fontColor=#ffffff;" parent="1" vertex="1">
                    <mxGeometry x="645" y="600" width="120" height="60" as="geometry"/>
                </mxCell>
                <mxCell id="15" style="edgeStyle=orthogonalEdgeStyle;rounded=0;orthogonalLoop=1;jettySize=auto;html=1;exitX=0.5;exitY=0;exitDx=0;exitDy=0;entryX=0.5;entryY=1;entryDx=0;entryDy=0;dashed=1;startArrow=classic;startFill=1;" parent="1" source="14" target="8" edge="1">
                    <mxGeometry relative="1" as="geometry">
                        <mxPoint x="281" y="610.0000000000002" as="sourcePoint"/>
                        <mxPoint x="281" y="430" as="targetPoint"/>
                    </mxGeometry>
                </mxCell>
                <mxCell id="16" value="gRPC communication" style="text;html=1;align=center;verticalAlign=middle;resizable=0;points=[];autosize=1;strokeColor=none;" parent="1" vertex="1">
                    <mxGeometry x="640" y="520" width="130" height="20" as="geometry"/>
                </mxCell>
                <mxCell id="18" value="&amp;lt;&amp;lt;IDBMgr&amp;gt;&amp;gt;" style="rounded=0;whiteSpace=wrap;html=1;" parent="1" vertex="1">
                    <mxGeometry x="520" y="370" width="80" height="40" as="geometry"/>
                </mxCell>
                <mxCell id="20" value="&amp;lt;&amp;lt;IClientsMgr&amp;gt;&amp;gt;" style="rounded=0;whiteSpace=wrap;html=1;" parent="1" vertex="1">
                    <mxGeometry x="200" y="370" width="100" height="40" as="geometry"/>
                </mxCell>
            </root>
        </mxGraphModel>
    </diagram>
    <diagram id="ZlVvyosTAwJ6eqtlWsym" name="User">
        <mxGraphModel dx="897" dy="533" grid="1" gridSize="10" guides="1" tooltips="1" connect="1" arrows="1" fold="1" page="1" pageScale="1" pageWidth="827" pageHeight="1169" math="0" shadow="0">
            <root>
                <mxCell id="BCbfqbuX09X7HbLUhlO--0"/>
                <mxCell id="BCbfqbuX09X7HbLUhlO--1" parent="BCbfqbuX09X7HbLUhlO--0"/>
                <mxCell id="uTscamcWw955Loyv11lg-0" style="edgeStyle=orthogonalEdgeStyle;rounded=0;orthogonalLoop=1;jettySize=auto;html=1;exitX=0;exitY=0.5;exitDx=0;exitDy=0;entryX=1;entryY=0.5;entryDx=0;entryDy=0;" edge="1" parent="BCbfqbuX09X7HbLUhlO--1" source="uTscamcWw955Loyv11lg-7" target="uTscamcWw955Loyv11lg-17">
                    <mxGeometry relative="1" as="geometry"/>
                </mxCell>
                <mxCell id="uTscamcWw955Loyv11lg-4" style="edgeStyle=orthogonalEdgeStyle;rounded=0;orthogonalLoop=1;jettySize=auto;html=1;exitX=1;exitY=0.5;exitDx=0;exitDy=0;endArrow=block;endFill=1;" edge="1" parent="BCbfqbuX09X7HbLUhlO--1" source="uTscamcWw955Loyv11lg-5" target="uTscamcWw955Loyv11lg-17">
                    <mxGeometry relative="1" as="geometry"/>
                </mxCell>
                <mxCell id="uTscamcWw955Loyv11lg-5" value="Clients manager" style="rounded=1;whiteSpace=wrap;html=1;" vertex="1" parent="BCbfqbuX09X7HbLUhlO--1">
                    <mxGeometry x="20" y="360" width="120" height="60" as="geometry"/>
                </mxCell>
                <mxCell id="uTscamcWw955Loyv11lg-6" value="" style="edgeStyle=orthogonalEdgeStyle;rounded=0;orthogonalLoop=1;jettySize=auto;html=1;entryX=0;entryY=0.5;entryDx=0;entryDy=0;exitX=1;exitY=0.5;exitDx=0;exitDy=0;" edge="1" parent="BCbfqbuX09X7HbLUhlO--1" source="uTscamcWw955Loyv11lg-29" target="uTscamcWw955Loyv11lg-16">
                    <mxGeometry relative="1" as="geometry"/>
                </mxCell>
                <mxCell id="uTscamcWw955Loyv11lg-30" style="edgeStyle=orthogonalEdgeStyle;rounded=0;orthogonalLoop=1;jettySize=auto;html=1;entryX=0;entryY=0.5;entryDx=0;entryDy=0;endArrow=classic;endFill=1;endSize=6;strokeWidth=1;" edge="1" parent="BCbfqbuX09X7HbLUhlO--1" source="uTscamcWw955Loyv11lg-7" target="uTscamcWw955Loyv11lg-29">
                    <mxGeometry relative="1" as="geometry"/>
                </mxCell>
                <mxCell id="uTscamcWw955Loyv11lg-7" value="web.Server" style="rounded=1;whiteSpace=wrap;html=1;fillColor=#a20025;strokeColor=#6F0000;fontColor=#ffffff;" vertex="1" parent="BCbfqbuX09X7HbLUhlO--1">
                    <mxGeometry x="354" y="360" width="120" height="60" as="geometry"/>
                </mxCell>
                <mxCell id="uTscamcWw955Loyv11lg-8" style="edgeStyle=orthogonalEdgeStyle;rounded=0;orthogonalLoop=1;jettySize=auto;html=1;exitX=0;exitY=0.5;exitDx=0;exitDy=0;endArrow=block;endFill=1;" edge="1" parent="BCbfqbuX09X7HbLUhlO--1" source="uTscamcWw955Loyv11lg-9" target="uTscamcWw955Loyv11lg-16">
                    <mxGeometry relative="1" as="geometry"/>
                </mxCell>
                <mxCell id="uTscamcWw955Loyv11lg-26" style="edgeStyle=orthogonalEdgeStyle;rounded=0;orthogonalLoop=1;jettySize=auto;html=1;entryX=1;entryY=0.5;entryDx=0;entryDy=0;endArrow=block;endFill=1;strokeWidth=1;endSize=7;exitX=0.5;exitY=0;exitDx=0;exitDy=0;" edge="1" parent="BCbfqbuX09X7HbLUhlO--1" source="uTscamcWw955Loyv11lg-9" target="uTscamcWw955Loyv11lg-25">
                    <mxGeometry relative="1" as="geometry"/>
                </mxCell>
                <mxCell id="uTscamcWw955Loyv11lg-32" style="edgeStyle=orthogonalEdgeStyle;rounded=0;orthogonalLoop=1;jettySize=auto;html=1;exitX=1;exitY=0.5;exitDx=0;exitDy=0;entryX=0;entryY=0.5;entryDx=0;entryDy=0;endArrow=classic;endFill=1;endSize=6;strokeWidth=1;startArrow=classic;startFill=1;" edge="1" parent="BCbfqbuX09X7HbLUhlO--1" source="uTscamcWw955Loyv11lg-9" target="uTscamcWw955Loyv11lg-31">
                    <mxGeometry relative="1" as="geometry"/>
                </mxCell>
                <mxCell id="uTscamcWw955Loyv11lg-9" value="DataBaseManager" style="whiteSpace=wrap;html=1;rounded=1;" vertex="1" parent="BCbfqbuX09X7HbLUhlO--1">
                    <mxGeometry x="797.5" y="360" width="120" height="60" as="geometry"/>
                </mxCell>
                <mxCell id="uTscamcWw955Loyv11lg-10" style="edgeStyle=orthogonalEdgeStyle;rounded=0;orthogonalLoop=1;jettySize=auto;html=1;exitX=0.5;exitY=0;exitDx=0;exitDy=0;entryX=0.5;entryY=1;entryDx=0;entryDy=0;dashed=1;startArrow=classic;startFill=1;" edge="1" parent="BCbfqbuX09X7HbLUhlO--1" source="uTscamcWw955Loyv11lg-11" target="uTscamcWw955Loyv11lg-5">
                    <mxGeometry relative="1" as="geometry"/>
                </mxCell>
                <mxCell id="uTscamcWw955Loyv11lg-11" value="GO_node&lt;br&gt;Client" style="rounded=1;whiteSpace=wrap;html=1;fillColor=#60a917;strokeColor=#2D7600;fontColor=#ffffff;" vertex="1" parent="BCbfqbuX09X7HbLUhlO--1">
                    <mxGeometry x="20" y="600" width="120" height="60" as="geometry"/>
                </mxCell>
                <mxCell id="uTscamcWw955Loyv11lg-12" value="gRPC communication" style="text;html=1;align=center;verticalAlign=middle;resizable=0;points=[];autosize=1;strokeColor=none;" vertex="1" parent="BCbfqbuX09X7HbLUhlO--1">
                    <mxGeometry x="20" y="500" width="130" height="20" as="geometry"/>
                </mxCell>
                <mxCell id="uTscamcWw955Loyv11lg-13" value="GO_node StatisticsManager" style="whiteSpace=wrap;html=1;rounded=1;fillColor=#1ba1e2;strokeColor=#006EAF;fontColor=#ffffff;" vertex="1" parent="BCbfqbuX09X7HbLUhlO--1">
                    <mxGeometry x="797.5" y="600" width="120" height="60" as="geometry"/>
                </mxCell>
                <mxCell id="uTscamcWw955Loyv11lg-14" style="edgeStyle=orthogonalEdgeStyle;rounded=0;orthogonalLoop=1;jettySize=auto;html=1;exitX=0.5;exitY=0;exitDx=0;exitDy=0;entryX=0.5;entryY=1;entryDx=0;entryDy=0;dashed=1;startArrow=classic;startFill=1;" edge="1" parent="BCbfqbuX09X7HbLUhlO--1" source="uTscamcWw955Loyv11lg-13" target="uTscamcWw955Loyv11lg-9">
                    <mxGeometry relative="1" as="geometry">
                        <mxPoint x="433.5" y="610.0000000000002" as="sourcePoint"/>
                        <mxPoint x="433.5" y="430" as="targetPoint"/>
                    </mxGeometry>
                </mxCell>
                <mxCell id="uTscamcWw955Loyv11lg-15" value="gRPC communication" style="text;html=1;align=center;verticalAlign=middle;resizable=0;points=[];autosize=1;strokeColor=none;" vertex="1" parent="BCbfqbuX09X7HbLUhlO--1">
                    <mxGeometry x="792.5" y="520" width="130" height="20" as="geometry"/>
                </mxCell>
                <mxCell id="uTscamcWw955Loyv11lg-16" value="&amp;lt;&amp;lt;IDBMgrServer&amp;gt;&amp;gt;&lt;br&gt;Write()" style="rounded=0;whiteSpace=wrap;html=1;" vertex="1" parent="BCbfqbuX09X7HbLUhlO--1">
                    <mxGeometry x="652.5" y="370" width="120" height="40" as="geometry"/>
                </mxCell>
                <mxCell id="uTscamcWw955Loyv11lg-24" style="edgeStyle=orthogonalEdgeStyle;rounded=0;orthogonalLoop=1;jettySize=auto;html=1;exitX=0.5;exitY=0;exitDx=0;exitDy=0;" edge="1" parent="BCbfqbuX09X7HbLUhlO--1" source="uTscamcWw955Loyv11lg-17" target="uTscamcWw955Loyv11lg-22">
                    <mxGeometry relative="1" as="geometry"/>
                </mxCell>
                <mxCell id="uTscamcWw955Loyv11lg-17" value="&amp;lt;&amp;lt;IClientsMgr&amp;gt;&amp;gt;" style="rounded=0;whiteSpace=wrap;html=1;" vertex="1" parent="BCbfqbuX09X7HbLUhlO--1">
                    <mxGeometry x="200" y="370" width="100" height="40" as="geometry"/>
                </mxCell>
                <mxCell id="uTscamcWw955Loyv11lg-22" value="&amp;lt;&amp;lt;IClientsMgr&amp;gt;&amp;gt;&lt;br&gt;User, error &amp;lt;- CreateNewUser(ID,Name,Email)&lt;br&gt;User, error &amp;lt;-GetExistingUser(ID)&lt;br&gt;Bool &amp;lt;-UpdateExistingUser(ID,User)&lt;br&gt;Boll &amp;lt;- DeleteExistingUser(ID)" style="rounded=0;whiteSpace=wrap;html=1;align=left;" vertex="1" parent="BCbfqbuX09X7HbLUhlO--1">
                    <mxGeometry x="100" y="210" width="300" height="90" as="geometry"/>
                </mxCell>
                <mxCell id="uTscamcWw955Loyv11lg-27" style="edgeStyle=orthogonalEdgeStyle;rounded=0;orthogonalLoop=1;jettySize=auto;html=1;entryX=0;entryY=0.5;entryDx=0;entryDy=0;" edge="1" parent="BCbfqbuX09X7HbLUhlO--1" source="uTscamcWw955Loyv11lg-5" target="uTscamcWw955Loyv11lg-25">
                    <mxGeometry relative="1" as="geometry">
                        <Array as="points">
                            <mxPoint x="80" y="120"/>
                            <mxPoint x="450" y="120"/>
                        </Array>
                    </mxGeometry>
                </mxCell>
                <mxCell id="uTscamcWw955Loyv11lg-25" value="&amp;lt;&amp;lt;IDBMgrClientMgr&amp;gt;&amp;gt;&lt;br&gt;LoadAllUsers() // On init&lt;br&gt;DumpAllUsers() // On destruction" style="rounded=0;whiteSpace=wrap;html=1;" vertex="1" parent="BCbfqbuX09X7HbLUhlO--1">
                    <mxGeometry x="450" y="60" width="215" height="130" as="geometry"/>
                </mxCell>
                <mxCell id="uTscamcWw955Loyv11lg-29" value="Logger" style="whiteSpace=wrap;html=1;rounded=1;" vertex="1" parent="BCbfqbuX09X7HbLUhlO--1">
                    <mxGeometry x="510" y="368.13" width="87.5" height="43.75" as="geometry"/>
                </mxCell>
                <mxCell id="uTscamcWw955Loyv11lg-31" value="" style="shape=datastore;whiteSpace=wrap;html=1;align=center;" vertex="1" parent="BCbfqbuX09X7HbLUhlO--1">
                    <mxGeometry x="980" y="360.01" width="60" height="60" as="geometry"/>
                </mxCell>
            </root>
        </mxGraphModel>
    </diagram>
</mxfile>